<svg width="35" height="35" xmlns="http://www.w3.org/2000/svg">
 <!-- Created with Method Draw - http://github.com/duopixel/Method-Draw/ -->

 <g>
  <title>background</title>
  <rect fill="none" id="canvas_background" height="37" width="37" y="-1" x="-1"/>
  <g display="none" overflow="visible" y="0" x="0" height="100%" width="100%" id="canvasGrid">
   <rect fill="url(#gridpattern)" stroke-width="0" y="1" x="1" height="400" width="580"/>
  </g>
 </g>
 <g>
  <title>Layer 1</title>
  <g fill="currentColor" id="svg_5">
   <path id="svg_4" d="m17.500785,0.681949c-9.28799,0 -16.818575,7.533297 -16.818575,16.818575c0,9.290703 7.530585,16.818575 16.818575,16.818575s16.818575,-7.527872 16.818575,-16.818575c0,-9.285278 -7.530585,-16.818575 -16.818575,-16.818575zm0,30.381942c-7.49593,0 -13.563367,-6.064927 -13.563367,-13.563367c0,-7.493421 6.067708,-13.563367 13.563367,-13.563367c7.49315,0 13.563367,6.06764 13.563367,13.563367c0,7.495795 -6.064927,13.563367 -13.563367,13.563367zm7.272949,-17.306856c0,4.547254 -4.911363,4.617241 -4.911363,6.297675l0,0.429755c0,0.449422 -0.36438,0.813802 -0.813802,0.813802l-3.095635,0c-0.449422,0 -0.813802,-0.36438 -0.813802,-0.813802l0,-0.587226c0,-2.424113 1.837836,-3.393148 3.226657,-4.17182c1.190931,-0.667657 1.920844,-1.121758 1.920844,-2.005954c0,-1.169569 -1.491903,-1.945868 -2.698025,-1.945868c-1.572605,0 -2.298584,0.744425 -3.319092,2.032403c-0.275133,0.347222 -0.777181,0.411716 -1.130235,0.144043l-1.886936,-1.4308c-0.346341,-0.262587 -0.423923,-0.750461 -0.179308,-1.109687c1.602308,-2.352837 3.643188,-3.674655 6.820678,-3.674655c3.32784,0 6.880018,2.597656 6.880018,6.022135zm-4.424642,11.338975c0,1.57057 -1.277737,2.848307 -2.848307,2.848307s-2.848307,-1.277737 -2.848307,-2.848307s1.277737,-2.848307 2.848307,-2.848307s2.848307,1.277737 2.848307,2.848307z" fill="#cccccc"/>
  </g>
 </g>
</svg>